# xmcd
#
# Track frame offsets:
#	150
#	48479
#	181764
#
# Disc length: 4463 seconds
#
# Revision: 0
# Processed by: cddbd v1.5PL3 Copyright (c) Steve Scherf et al.
# Submitted via: EasyCDDAExtractor 5.0.4.1
#
DISCID=1d116d03
DTITLE=Led Zeppelin - Earl's Court Arena 2405 Evoluzione CD3
DYEAR=1975
DGENRE=Blues
TTITLE0=Trampled Underfoot
TTITLE1=Moby Dick
TTITLE2=Dazed And Confused
EXTD=
EXTT0=
EXTT1=
EXTT2=
PLAYORDER=
